<?xml version="1.0" encoding="utf-8"?>
<!-- Generator: Adobe Illustrator 25.4.1, SVG Export Plug-In . SVG Version: 6.00 Build 0)  -->
<svg version="1.1" id="Layer_1" xmlns="http://www.w3.org/2000/svg" xmlns:xlink="http://www.w3.org/1999/xlink" x="0px" y="0px"
	 viewBox="0 0 54.9 54.9" style="enable-background:new 0 0 54.9 54.9;" xml:space="preserve">
<style type="text/css">
	.st0{display:none;fill:#231F20;}
	.st1{fill:#07B9AA;}
	.st2{fill:#0C9D91;}
	.st3{fill:#0A5952;}
	.st4{display:none;}
	.st5{display:inline;fill:#C7C8CA;}
	.st6{display:inline;fill:#FFFFFF;}
	.st7{fill:#FFFFFF;}
</style>
<rect x="-5.7" y="1.3" class="st0" width="384.1" height="58.3"/>
<g>
	<polygon class="st1" points="8.6,26.8 31.2,4.5 45.7,4.5 16.2,34.4 	"/>
	<polygon class="st1" points="26.4,30.9 33.3,38 46.2,25.2 31.9,25.2 	"/>
	<polygon class="st2" points="26.4,45.2 33.3,38 26.4,30.9 19.2,38 	"/>
	<polygon class="st3" points="26.4,45.2 31.8,50.4 45.5,50.3 33.3,38 	"/>
</g>
<path class="st3" d="M13.2,41.1"/>
<g class="st4">
	<path class="st5" d="M58.7,39.7c-2.2,0-4.1-0.5-5.6-1.4c-1.6-1-2.8-2.3-3.7-4s-1.3-3.7-1.3-5.9c0-2.3,0.4-4.2,1.3-6s2.1-3,3.7-4
		s3.5-1.4,5.6-1.4c2.6,0,4.7,0.6,6.3,1.9c1.6,1.3,2.7,3,3.1,5.3h-3.7c-0.3-1.3-0.9-2.3-1.9-3.1c-1-0.8-2.2-1.1-3.9-1.1
		c-2.2,0-3.9,0.8-5.2,2.2c-1.3,1.5-1.9,3.5-1.9,6.2c0,2.6,0.6,4.6,1.9,6.1s3,2.2,5.2,2.2c1.6,0,2.9-0.4,3.9-1.1s1.6-1.7,1.9-2.9h3.7
		c-0.4,2.2-1.5,3.9-3.1,5.1C63.4,39,61.3,39.7,58.7,39.7z"/>
	<path class="st5" d="M76.8,39.3v-22h7.5c1.7,0,3.2,0.3,4.3,0.9c1.1,0.6,1.9,1.4,2.5,2.4s0.8,2.1,0.8,3.3c0,1.4-0.4,2.6-1.1,3.7
		S89,29.5,87.4,30l4.7,9.3h-3.8L84,30.4h-3.9v8.9H76.8L76.8,39.3z M80.1,28h4.1c1.5,0,2.6-0.4,3.3-1.1s1.1-1.7,1.1-2.9
		c0-1.2-0.3-2.1-1-2.8c-0.7-0.7-1.9-1.1-3.5-1.1h-4V28z"/>
	<path class="st5" d="M105.6,39.3v-8.1l-7.3-13.9h3.8l5.2,10.6l5.2-10.6h3.7L109,31.2v8.1C109,39.3,105.6,39.3,105.6,39.3z"/>
	<path class="st5" d="M123.8,39.3v-22h7.7c1.7,0,3.1,0.3,4.3,0.9c1.1,0.6,2,1.4,2.5,2.3c0.6,1,0.8,2.1,0.8,3.4
		c0,1.2-0.3,2.3-0.8,3.3s-1.4,1.8-2.5,2.4s-2.6,0.9-4.3,0.9h-4.4v8.9L123.8,39.3L123.8,39.3z M127.1,27.7h4.2c1.6,0,2.7-0.3,3.4-1
		s1-1.6,1-2.8c0-1.2-0.3-2.2-1-2.8c-0.7-0.7-1.8-1-3.4-1h-4.2V27.7z"/>
	<path class="st5" d="M152.5,39.3V20H146v-2.7h16.3V20h-6.5v19.3C155.8,39.3,152.5,39.3,152.5,39.3z"/>
	<path class="st5" d="M179.5,39.7c-2.2,0-4.1-0.5-5.7-1.4s-2.9-2.3-3.8-4c-0.9-1.7-1.4-3.7-1.4-5.9s0.5-4.2,1.4-5.9s2.2-3,3.8-4
		s3.5-1.4,5.7-1.4s4.1,0.5,5.7,1.4s2.9,2.3,3.8,4c0.9,1.7,1.4,3.7,1.4,5.9s-0.5,4.2-1.4,5.9s-2.2,3-3.8,4
		C183.6,39.2,181.7,39.7,179.5,39.7z M179.5,36.7c1.5,0,2.8-0.3,3.9-1s2-1.6,2.6-2.9s0.9-2.8,0.9-4.5s-0.3-3.2-0.9-4.5
		s-1.5-2.2-2.6-2.9c-1.1-0.7-2.4-1-3.9-1s-2.8,0.3-4,1c-1.1,0.7-2,1.6-2.6,2.9s-0.9,2.8-0.9,4.5s0.3,3.2,0.9,4.5s1.5,2.2,2.6,2.9
		C176.7,36.4,178,36.7,179.5,36.7z"/>
</g>
<g class="st4">
	<path class="st6" d="M204.1,39.3V20.6h-6.4v-3.2h16.9v3.2h-6.4v18.8L204.1,39.3L204.1,39.3z"/>
	<path class="st6" d="M222.4,39.3v-22h8.1c1.8,0,3.2,0.3,4.4,0.9c1.2,0.6,2,1.4,2.6,2.4s0.9,2.1,0.9,3.4s-0.4,2.6-1.1,3.7
		s-1.8,1.9-3.3,2.4l4.6,9.2H234l-4.1-8.7h-3.3v8.7H222.4L222.4,39.3z M226.5,27.7h3.8c1.3,0,2.3-0.3,2.9-1s0.9-1.5,0.9-2.6
		c0-1-0.3-1.9-0.9-2.5c-0.6-0.6-1.6-0.9-3-0.9h-3.8L226.5,27.7L226.5,27.7z"/>
	<path class="st6" d="M245.5,39.3l8-22h4.5l8,22h-4.3l-1.8-5.1h-8.6l-1.8,5.1H245.5z M252.6,31.1h6.4l-3.2-9.1L252.6,31.1z"/>
	<path class="st6" d="M282.6,39.7c-2.2,0-4.1-0.5-5.7-1.4s-2.8-2.3-3.7-4s-1.3-3.7-1.3-5.9s0.4-4.2,1.3-5.9s2.1-3.1,3.7-4
		c1.6-1,3.5-1.4,5.7-1.4c2.6,0,4.8,0.6,6.5,2c1.7,1.3,2.7,3.2,3.2,5.5h-4.4c-0.3-1.2-0.9-2.1-1.7-2.8c-0.9-0.7-2.1-1-3.5-1
		c-2,0-3.6,0.7-4.8,2.1s-1.7,3.3-1.7,5.7s0.6,4.3,1.7,5.7c1.1,1.4,2.7,2.1,4.8,2.1c1.5,0,2.6-0.3,3.5-1s1.5-1.5,1.7-2.6h4.4
		c-0.4,2.3-1.5,4-3.2,5.3C287.4,39.1,285.2,39.7,282.6,39.7z"/>
	<path class="st6" d="M300.7,39.3v-22h4v8.9l8.1-8.9h5l-8.1,8.7l8.3,13.2h-4.9L306.8,29l-2.1,2.3v7.9L300.7,39.3L300.7,39.3z"/>
	<path class="st6" d="M325.7,39.3v-22h14.4v3.2h-10.3v6h9.4v3.1h-9.4v6.5h10.3v3.2H325.7L325.7,39.3z"/>
	<path class="st6" d="M348.8,39.3v-22h8.1c1.8,0,3.2,0.3,4.4,0.9c1.2,0.6,2,1.4,2.6,2.4s0.9,2.1,0.9,3.4s-0.4,2.6-1,3.7
		c-0.7,1.1-1.8,1.9-3.3,2.4l4.5,9.2h-4.6l-4.1-8.7H353v8.7H348.8L348.8,39.3z M352.8,27.7h3.8c1.3,0,2.3-0.3,3-1s0.9-1.5,0.9-2.6
		c0-1-0.3-1.9-0.9-2.5s-1.6-0.9-3-0.9h-3.8V27.7L352.8,27.7z"/>
</g>
<path class="st7" d="M-146.7-40.9"/>
</svg>
