<?xml version="1.0" encoding="utf-8"?>
<!-- Generator: Adobe Illustrator 25.4.1, SVG Export Plug-In . SVG Version: 6.00 Build 0)  -->
<svg version="1.1" id="Layer_1" xmlns="http://www.w3.org/2000/svg" xmlns:xlink="http://www.w3.org/1999/xlink" x="0px" y="0px"
	 viewBox="0 0 218.3 114.9" style="enable-background:new 0 0 218.3 114.9;" xml:space="preserve">
<style type="text/css">
	.st0{display:none;fill:#050E20;}
	.st1{display:none;fill:#1B2435;}
	.st2{display:none;fill:#161C2A;}
	.st3{display:none;fill:#0D1424;}
	.st4{fill:#FF9332;}
	.st5{fill:#B56823;}
	.st6{fill:#854C1A;}
	.st7{fill:#4D4E50;}
	.st8{fill:#2F2B2C;}
</style>
<image style="display:none;overflow:visible;enable-background:new    ;" width="624" height="497" xlink:href="C0D9B377.jpeg"  transform="matrix(0.6501 0 0 0.8068 -93.6949 -70.1098)">
</image>
<image style="display:none;overflow:visible;enable-background:new    ;" width="567" height="630" xlink:href="C0D9B375.jpeg"  transform="matrix(0.3597 0 0 0.3597 35.9894 8.7826)">
</image>
<rect x="-140.6" y="-119.2" class="st0" width="905.3" height="393.9"/>
<image style="display:none;overflow:visible;enable-background:new    ;" width="612" height="353" xlink:href="C0D9B37B.jpeg"  transform="matrix(-1 0 0 1 758.2553 -55.9571)">
</image>
<path class="st1" d="M359.4,274.8h-500V145.3l61.4-40.1l13.7-3.3l16.5-9.3l11.5-12.6H-27c0,0,3.5-5.3,7-6.2S-0.5,51.5-0.5,51.5
	l16.7,1.7l15.1,13.5l5.9-0.8l12.6,9.7l4.5,0.3l5.1,4.3c0,0,23.6,12.8,24.1,13c0.6,0.2,9.6,2.3,9.6,2.3l8-0.6l10.3,2.8l6.3-4.5
	l20.3-3.8l27.4-28.5h15.5c0,0,14.9-16.6,18.4-23.5L219.8,11l23.6,17.4l10.5,13.8l1,11.7L269.4,68l9.4,4.2l20.7,8.4l8.2,11.3
	l12.5,1.2l16.1,5.2l17.4-4.7l5.8-1.1l8.4-7.2l9.1-9.6l3.8-9.2l8.8-7.3l2.5-1.9l5.4,0.8l18-12.3l7.7,7.5l11.5,1.9l17.6,15.7
	l12.6,12.9l23.9-20.6l10-1.9l10.1-9.8l11.1-18.8L537.1,19l18.5,14.9l18.4,8.3l13.7,16.1l14.3,15.7l16.1,6l16.8,12.1l8.3,6l11,1.3
	l7.9,15.1l12.3,8.2l9.7-1.5l8.2-12.3l14-9.7l12.3-13l12.8,1.8l11-2.3l10-7.7l12.5,17.4v179.5L359.4,274.8"/>
<path class="st2" d="M359.4,273.7l0,1.1h-500l0.4-115.2l133.3-33.2L12,113.6l13.8-5.6l8.7-8.7C36.1,98.1,47.8,88,47.8,88l4.1-4.2
	l10,12.2l2.4,9.2l10.4,8.5l4.6,1.7l8.3,1.5l7.3-2.9c0,0,12.9,10,17.7,11.9c4.9,1.9,11.9,12.1,11.9,12.1l1.5,2.9h5.8l12.4,8.5
	l25.3,2.2l8-2.2l10.4-19.2l14.3-9.7L215,129l7.8,4.6l9.5,3.4l12.6,1.2l11.2,0.5l10.5-9.7l8.3-7.1l7.5,3.2l12.4-4.4l20.2-10.8
	l24.8,6.7l19.9,3.9l14.4-17.4l18.9-8.4l17.4-10.9l16.9,10.7l13,19.9l18.4,11.2l10,7.7l10.2,12l20.9-7.2l9.4-2.3l21.5-29.3l21.1,14.1
	l8.2,1.6l9.2,12.8l17.2,17.8l5.5,3.8H608l8.4,6.9l5.5,1.7L638,178l7.3,2.9l9.8-14.6l15.1-7.9l6.9-3.6l6.9-10.3l5.7,1.9l9.6,6.3
	l10,10.7l5.5,3.1l7.3,7.3l11.5,10.9l8.8,5.9l7.7,11.1l14.6,6.1v66.8L359.4,273.7z"/>
<path class="st3" d="M290.3,222.2l-36-33.8l-11.9-2.9l-14.3-8.1l-10-11h-9.1c0,0-3-4.6-6.1-5.4c-3-0.8-16.9-19.2-16.9-19.2
	l-14.5,1.5l-13.1,11.7l-5.1-0.7l-11,8.4l-3.9,0.2l-4.4,3.8c0,0-20.4,11.1-20.9,11.3s-8.3,2-8.3,2l-7-0.5l-9,2.4l-5.5-3.9L66,174.8
	L42.2,150H28.8c0,0-12.9-14.4-15.9-20.4l-17.8-22.9l-20.4,15.1l-9.1,11.9l-0.8,10.1l-12.6,12.3l-8.1,3.6l-17.9,7.3l-7.1,9.8l-10.8,1
	l-13.9,4.5l-13.3,2.7l-16.6,13.9l-4.9,22.2l0.1,53.5h500v-48.5l-23.9,7.4l-24.1-8.1L290.3,222.2z"/>
<g>
	<polygon class="st4" points="110.3,10.6 143.8,44.5 143.8,66.2 98.9,22 	"/>
	<polygon class="st4" points="104.3,37.3 93.7,47.7 112.7,67 112.7,45.5 	"/>
	<polygon class="st5" points="82.8,37.3 93.7,47.7 104.3,37.3 93.7,26.4 	"/>
	<polygon class="st6" points="82.8,37.3 75,45.3 75.2,65.9 93.7,47.7 	"/>
</g>
<g>
	<path class="st7" d="M14.2,97.4c-2.2,0-4.1-0.5-5.6-1.4s-2.8-2.3-3.7-4S3.6,88.3,3.6,86c0-2.3,0.4-4.2,1.3-5.9s2.1-3,3.7-4
		s3.5-1.4,5.6-1.4c2.6,0,4.7,0.6,6.3,1.9c1.6,1.3,2.7,3,3.1,5.3h-3.7c-0.3-1.3-0.9-2.3-1.9-3.1c-1-0.8-2.2-1.1-3.9-1.1
		c-2.2,0-3.9,0.8-5.2,2.2C7.7,81.4,7,83.4,7,86c0,2.6,0.6,4.6,1.9,6.1s3,2.2,5.2,2.2c1.6,0,2.9-0.4,3.9-1.1s1.6-1.7,1.9-2.9h3.7
		c-0.4,2.2-1.5,3.9-3.1,5.1C18.9,96.8,16.8,97.4,14.2,97.4z"/>
	<path class="st7" d="M37.4,97.4c-1.5,0-2.8-0.3-4-1s-2.1-1.6-2.8-2.9c-0.7-1.2-1-2.7-1-4.3c0-1.6,0.4-3.1,1-4.3
		c0.7-1.2,1.7-2.2,2.8-2.9s2.5-1,4-1c1.5,0,2.8,0.3,4,1s2.1,1.6,2.8,2.9c0.7,1.2,1,2.7,1,4.3c0,1.6-0.3,3.1-1,4.3
		c-0.7,1.2-1.7,2.2-2.8,2.9S38.9,97.4,37.4,97.4z M37.4,94.5c0.8,0,1.5-0.2,2.2-0.6s1.2-1,1.7-1.8c0.4-0.8,0.6-1.8,0.6-2.9
		s-0.2-2.2-0.6-2.9s-1-1.4-1.6-1.8c-0.7-0.4-1.4-0.6-2.2-0.6c-0.8,0-1.5,0.2-2.2,0.6s-1.2,1-1.7,1.8c-0.4,0.8-0.6,1.8-0.6,2.9
		s0.2,2.2,0.6,2.9c0.4,0.8,1,1.4,1.6,1.8C35.9,94.3,36.6,94.5,37.4,94.5z"/>
	<path class="st7" d="M53.7,78.5c-0.6,0-1.2-0.2-1.5-0.6c-0.4-0.4-0.6-0.9-0.6-1.5s0.2-1.1,0.6-1.5s0.9-0.6,1.5-0.6s1.2,0.2,1.5,0.6
		c0.4,0.4,0.6,0.9,0.6,1.5s-0.2,1.1-0.6,1.5C54.9,78.3,54.4,78.5,53.7,78.5z M52.1,97V81.4h3.3V97L52.1,97L52.1,97z"/>
	<path class="st7" d="M62.7,97V81.4h2.9l0.2,2.7c0.5-1,1.2-1.7,2.1-2.3c0.9-0.6,2-0.8,3.2-0.8c1.9,0,3.4,0.6,4.4,1.8
		c1.1,1.2,1.6,2.9,1.6,5.2V97H74v-8.6c0-3-1.2-4.5-3.7-4.5c-1.2,0-2.3,0.4-3.1,1.3C66.4,86.1,66,87.3,66,89v8H62.7z"/>
	<path class="st8" d="M91.3,97V78.3h-6.4V75h16.9v3.2h-6.4V97H91.3z"/>
	<path class="st8" d="M106.1,97V81.4h3.6l0.4,2.9c0.6-1,1.3-1.8,2.3-2.4c1-0.6,2.1-0.9,3.4-0.9v4.2h-1.1c-0.9,0-1.7,0.1-2.4,0.4
		c-0.7,0.3-1.2,0.7-1.6,1.4c-0.4,0.7-0.6,1.6-0.6,2.8V97L106.1,97L106.1,97z"/>
	<path class="st8" d="M126.8,97.4c-1.3,0-2.4-0.2-3.3-0.6s-1.5-1-1.9-1.7s-0.6-1.5-0.6-2.4c0-1.4,0.6-2.6,1.7-3.5
		c1.1-0.9,2.8-1.3,5.1-1.3h4v-0.4c0-1.1-0.3-1.8-0.9-2.3s-1.4-0.8-2.3-0.8c-0.8,0-1.5,0.2-2.1,0.6s-1,1-1.1,1.7h-3.9
		c0.1-1.1,0.5-2.1,1.2-2.9s1.5-1.5,2.6-1.9c1.1-0.4,2.2-0.7,3.5-0.7c2.2,0,4,0.6,5.2,1.7c1.3,1.1,1.9,2.7,1.9,4.7V97h-3.4l-0.4-2.5
		c-0.5,0.8-1.1,1.5-1.9,2.1C129.2,97.1,128.1,97.4,126.8,97.4z M127.7,94.2c1.2,0,2-0.4,2.7-1.1c0.6-0.8,1-1.7,1.2-2.8h-3.4
		c-1.1,0-1.8,0.2-2.3,0.6s-0.7,0.9-0.7,1.4c0,0.6,0.2,1.1,0.7,1.4C126.3,94.1,126.9,94.2,127.7,94.2z"/>
	<path class="st8" d="M150.1,97.4c-1.6,0-3-0.3-4.2-1c-1.2-0.7-2.2-1.7-2.9-2.9s-1.1-2.7-1.1-4.2s0.4-3,1.1-4.2
		c0.7-1.2,1.7-2.2,2.9-2.9c1.2-0.7,2.6-1,4.2-1c2,0,3.7,0.5,5,1.6c1.4,1,2.2,2.5,2.6,4.3h-4.2c-0.2-0.8-0.6-1.3-1.2-1.8
		c-0.6-0.4-1.4-0.6-2.2-0.6c-1.1,0-2.1,0.4-2.8,1.3c-0.8,0.8-1.2,2-1.2,3.5s0.4,2.7,1.2,3.5c0.8,0.8,1.7,1.3,2.8,1.3
		c0.8,0,1.6-0.2,2.2-0.6s1-1,1.2-1.8h4.2c-0.4,1.8-1.2,3.2-2.6,4.2C153.8,96.8,152.1,97.4,150.1,97.4z"/>
	<path class="st8" d="M164.2,97V74.4h4v13.3l5.5-6.3h4.8l-6.4,7.1l7.4,8.5h-5l-6.3-7.8V97C168.3,97,164.2,97,164.2,97z"/>
	<path class="st8" d="M191.3,97.4c-1.6,0-3-0.3-4.2-1c-1.2-0.7-2.2-1.6-2.9-2.8c-0.7-1.2-1-2.6-1-4.2c0-1.6,0.3-3.1,1-4.3
		c0.7-1.3,1.6-2.2,2.8-2.9c1.2-0.7,2.6-1.1,4.2-1.1c1.5,0,2.9,0.3,4.1,1s2.1,1.6,2.8,2.8s1,2.4,1,3.9c0,0.2,0,0.5,0,0.7
		c0,0.2,0,0.5-0.1,0.8h-11.8c0.1,1.2,0.5,2.2,1.3,2.9c0.8,0.7,1.7,1,2.8,1c0.8,0,1.5-0.2,2.1-0.6c0.6-0.4,1-0.8,1.2-1.4h4.1
		c-0.3,1-0.8,1.9-1.5,2.7c-0.7,0.8-1.5,1.4-2.5,1.9C193.7,97.2,192.6,97.4,191.3,97.4z M191.3,84.3c-1,0-1.9,0.3-2.6,0.8
		c-0.8,0.6-1.2,1.4-1.4,2.5h7.8c-0.1-1-0.4-1.8-1.1-2.4C193.2,84.6,192.4,84.3,191.3,84.3z"/>
	<path class="st8" d="M205.4,97V81.4h3.6l0.4,2.9c0.6-1,1.3-1.8,2.3-2.4c1-0.6,2.1-0.9,3.4-0.9v4.2H214c-0.9,0-1.7,0.1-2.4,0.4
		c-0.7,0.3-1.2,0.7-1.6,1.4c-0.4,0.7-0.6,1.6-0.6,2.8V97L205.4,97L205.4,97z"/>
</g>
<path class="st3" d="M241.7,176.1l35.6,3.2l40.9-6.6l10.9-5.3l7.6-7.2h6.9c0,0,2.3-3,4.6-3.5s18.3-17.8,18.3-17.8l12.8-5.6l15.1,9.6
	c0,0,21.7,24.8,22.1,24.9s6.3,1.3,6.3,1.3l5.3-0.3l6.8,1.6l4.2-2.6l13.4-2.2l18.1-16.2h10.2c0,0,9.9-9.5,12.1-13.4l13.5-15l15.6,9.9
	l7,7.8l0.6,6.6l9.6,8.1l6.2,2.4l13.7,4.8l5.4,6.4l8.2,0.6l10.6,2.9l10.1,1.7l12.7,9.1l3.8,14.6l-0.1,78.7H218.1V166.5l10.9,5.1
	L241.7,176.1z"/>
<polygon class="st3" points="606.3,181.5 635.7,190.8 667.2,181.5 700.8,181.5 709.3,197.9 730,214.5 764.7,228.3 764.7,274.8 
	597.5,274.2 "/>
</svg>
