<?xml version="1.0" encoding="utf-8"?>
<!-- Generator: Adobe Illustrator 25.4.1, SVG Export Plug-In . SVG Version: 6.00 Build 0)  -->
<svg version="1.1" id="Layer_1" xmlns="http://www.w3.org/2000/svg" xmlns:xlink="http://www.w3.org/1999/xlink" x="0px" y="0px"
	 viewBox="0 0 303.6 45.9" style="enable-background:new 0 0 303.6 45.9;" xml:space="preserve">
<style type="text/css">
	.st0{display:none;fill:#231F20;}
	.st1{fill:#07B9AA;}
	.st2{fill:#0C9D91;}
	.st3{fill:#0A5952;}
	.st4{display:none;}
	.st5{display:inline;fill:#C7C8CA;}
	.st6{display:inline;fill:#FFFFFF;}
	.st7{fill:#D7D8D9;}
	.st8{fill:#FFFFFF;}
</style>
<image style="display:none;overflow:visible;enable-background:new    ;" width="500" height="500" xlink:href="D492551B.png"  transform="matrix(0.75 0 0 0.75 -29.1277 -160.5319)">
</image>
<rect y="-4.8" class="st0" width="384.1" height="58.3"/>
<polygon class="st1" points="7.5,22.3 30.1,0 44.6,0 15.1,29.9 "/>
<polygon class="st1" points="25.3,26.4 32.2,33.5 45.1,20.7 30.8,20.7 "/>
<polygon class="st2" points="25.3,40.7 32.2,33.5 25.3,26.4 18.1,33.5 "/>
<polygon class="st3" points="25.3,40.7 30.7,45.9 44.4,45.8 32.2,33.5 "/>
<path class="st3" d="M18.9,36.4"/>
<g class="st4">
	<path class="st5" d="M64.4,33.6c-2.2,0-4.1-0.5-5.6-1.4c-1.6-1-2.8-2.3-3.7-4c-0.9-1.7-1.3-3.7-1.3-5.9c0-2.3,0.4-4.2,1.3-6
		s2.1-3,3.7-4s3.5-1.4,5.6-1.4c2.6,0,4.7,0.6,6.3,1.9c1.6,1.3,2.7,3,3.1,5.3h-3.7c-0.3-1.3-0.9-2.3-1.9-3.1c-1-0.8-2.2-1.1-3.9-1.1
		c-2.2,0-3.9,0.8-5.2,2.2c-1.3,1.5-1.9,3.5-1.9,6.2c0,2.6,0.6,4.6,1.9,6.1s3,2.2,5.2,2.2c1.6,0,2.9-0.4,3.9-1.1s1.6-1.7,1.9-2.9h3.7
		c-0.4,2.2-1.5,3.9-3.1,5.1S67,33.6,64.4,33.6z"/>
	<path class="st5" d="M82.5,33.2v-22H90c1.7,0,3.2,0.3,4.3,0.9s1.9,1.4,2.5,2.4s0.8,2.1,0.8,3.3c0,1.4-0.4,2.6-1.1,3.7
		c-0.7,1.1-1.8,1.9-3.4,2.4l4.7,9.3H94l-4.3-8.9h-3.9v8.9L82.5,33.2L82.5,33.2z M85.8,21.9h4.1c1.5,0,2.6-0.4,3.3-1.1
		s1.1-1.7,1.1-2.9c0-1.2-0.3-2.1-1-2.8S91.4,14,89.8,14h-4V21.9z"/>
	<path class="st5" d="M111.3,33.2v-8.1L104,11.2h3.8l5.2,10.6l5.2-10.6h3.7l-7.2,13.9v8.1H111.3z"/>
	<path class="st5" d="M129.5,33.2v-22h7.7c1.7,0,3.1,0.3,4.3,0.9c1.1,0.6,2,1.4,2.5,2.3c0.6,1,0.8,2.1,0.8,3.4
		c0,1.2-0.3,2.3-0.8,3.3s-1.4,1.8-2.5,2.4s-2.6,0.9-4.3,0.9h-4.4v8.9L129.5,33.2L129.5,33.2z M132.8,21.6h4.2c1.6,0,2.7-0.3,3.4-1
		c0.7-0.7,1-1.6,1-2.8c0-1.2-0.3-2.2-1-2.8c-0.7-0.7-1.8-1-3.4-1h-4.2V21.6z"/>
	<path class="st5" d="M158.2,33.2V13.9h-6.5v-2.7H168v2.7h-6.5v19.3H158.2z"/>
	<path class="st5" d="M185.2,33.6c-2.2,0-4.1-0.5-5.7-1.4s-2.9-2.3-3.8-4c-0.9-1.7-1.4-3.7-1.4-5.9s0.5-4.2,1.4-5.9s2.2-3,3.8-4
		s3.5-1.4,5.7-1.4c2.2,0,4.1,0.5,5.7,1.4s2.9,2.3,3.8,4c0.9,1.7,1.4,3.7,1.4,5.9s-0.5,4.2-1.4,5.9c-0.9,1.7-2.2,3-3.8,4
		C189.3,33.1,187.4,33.6,185.2,33.6z M185.2,30.6c1.5,0,2.8-0.3,3.9-1s2-1.6,2.6-2.9c0.6-1.3,0.9-2.8,0.9-4.5s-0.3-3.2-0.9-4.5
		s-1.5-2.2-2.6-2.9s-2.4-1-3.9-1c-1.5,0-2.8,0.3-4,1c-1.1,0.7-2,1.6-2.6,2.9s-0.9,2.8-0.9,4.5s0.3,3.2,0.9,4.5s1.5,2.2,2.6,2.9
		C182.4,30.3,183.7,30.6,185.2,30.6z"/>
</g>
<g class="st4">
	<path class="st6" d="M209.8,33.2V14.5h-6.4v-3.2h16.9v3.2h-6.4v18.8L209.8,33.2L209.8,33.2z"/>
	<path class="st6" d="M228.1,33.2v-22h8.1c1.8,0,3.2,0.3,4.4,0.9s2,1.4,2.6,2.4c0.6,1,0.9,2.1,0.9,3.4c0,1.3-0.4,2.6-1.1,3.7
		s-1.8,1.9-3.3,2.4l4.6,9.2h-4.6l-4.1-8.7h-3.3v8.7L228.1,33.2L228.1,33.2z M232.2,21.6h3.8c1.3,0,2.3-0.3,2.9-1s0.9-1.5,0.9-2.6
		c0-1-0.3-1.9-0.9-2.5c-0.6-0.6-1.6-0.9-3-0.9h-3.8L232.2,21.6L232.2,21.6z"/>
	<path class="st6" d="M251.2,33.2l8-22h4.5l8,22h-4.3l-1.8-5.1h-8.6l-1.8,5.1H251.2z M258.3,25h6.4l-3.2-9.1L258.3,25z"/>
	<path class="st6" d="M288.3,33.6c-2.2,0-4.1-0.5-5.7-1.4s-2.8-2.3-3.7-4s-1.3-3.7-1.3-5.9s0.4-4.2,1.3-5.9c0.9-1.7,2.1-3.1,3.7-4
		c1.6-1,3.5-1.4,5.7-1.4c2.6,0,4.8,0.6,6.5,2c1.7,1.3,2.7,3.2,3.2,5.5h-4.4c-0.3-1.2-0.9-2.1-1.7-2.8c-0.9-0.7-2.1-1-3.5-1
		c-2,0-3.6,0.7-4.8,2.1s-1.7,3.3-1.7,5.7s0.6,4.3,1.7,5.7c1.1,1.4,2.7,2.1,4.8,2.1c1.5,0,2.6-0.3,3.5-1s1.5-1.5,1.7-2.6h4.4
		c-0.4,2.3-1.5,4-3.2,5.3C293.1,33,290.9,33.6,288.3,33.6z"/>
	<path class="st6" d="M306.4,33.2v-22h4v8.9l8.1-8.9h5l-8.1,8.7l8.3,13.2h-4.9l-6.3-10.2l-2.1,2.3v7.9H306.4z"/>
	<path class="st6" d="M331.4,33.2v-22h14.4v3.2h-10.3v6h9.4v3.1h-9.4V30h10.3v3.2L331.4,33.2L331.4,33.2z"/>
	<path class="st6" d="M354.5,33.2v-22h8.1c1.8,0,3.2,0.3,4.4,0.9s2,1.4,2.6,2.4c0.6,1,0.9,2.1,0.9,3.4c0,1.3-0.4,2.6-1,3.7
		c-0.7,1.1-1.8,1.9-3.3,2.4l4.5,9.2h-4.6l-4.1-8.7h-3.3v8.7L354.5,33.2L354.5,33.2z M358.5,21.6h3.8c1.3,0,2.3-0.3,3-1
		s0.9-1.5,0.9-2.6c0-1-0.3-1.9-0.9-2.5c-0.6-0.6-1.6-0.9-3-0.9h-3.8L358.5,21.6L358.5,21.6z"/>
</g>
<g>
	<path class="st7" d="M72.7,34.7c-2.2,0-4.1-0.5-5.6-1.4s-2.8-2.3-3.7-4c-0.9-1.7-1.3-3.7-1.3-5.9c0-2.3,0.4-4.2,1.3-6
		c0.9-1.7,2.1-3,3.7-4s3.5-1.4,5.6-1.4c2.6,0,4.7,0.6,6.3,1.9c1.6,1.3,2.7,3,3.1,5.3h-3.7c-0.3-1.3-0.9-2.3-1.9-3
		c-1-0.8-2.2-1.1-3.9-1.1c-2.2,0-3.9,0.8-5.2,2.2c-1.3,1.5-1.9,3.5-1.9,6.2c0,2.6,0.6,4.6,1.9,6.1s3,2.2,5.2,2.2
		c1.6,0,2.9-0.4,3.9-1.1s1.6-1.7,1.9-2.9h3.7c-0.4,2.2-1.5,3.9-3.1,5.1C77.3,34.1,75.2,34.7,72.7,34.7z"/>
	<path class="st7" d="M95.8,34.7c-1.5,0-2.8-0.3-4-1s-2.1-1.6-2.8-2.9c-0.7-1.2-1-2.6-1-4.3c0-1.6,0.3-3.1,1.1-4.3
		c0.7-1.2,1.7-2.2,2.8-2.9c1.2-0.7,2.5-1,4-1c1.5,0,2.8,0.3,4,1s2.1,1.6,2.8,2.9c0.7,1.2,1.1,2.6,1.1,4.3c0,1.6-0.3,3.1-1.1,4.3
		c-0.7,1.2-1.7,2.2-2.8,2.9C98.7,34.4,97.3,34.7,95.8,34.7z M95.8,31.9c0.8,0,1.5-0.2,2.2-0.6s1.2-1,1.7-1.8
		c0.4-0.8,0.6-1.8,0.6-2.9s-0.2-2.1-0.6-2.9s-0.9-1.4-1.6-1.8c-0.7-0.4-1.4-0.6-2.2-0.6c-0.8,0-1.5,0.2-2.2,0.6s-1.2,1-1.7,1.8
		c-0.4,0.8-0.6,1.8-0.6,2.9s0.2,2.1,0.6,2.9c0.4,0.8,1,1.4,1.6,1.8C94.3,31.7,95,31.9,95.8,31.9z"/>
	<path class="st7" d="M112.2,15.8c-0.6,0-1.2-0.2-1.6-0.6c-0.4-0.4-0.6-0.9-0.6-1.5s0.2-1.1,0.6-1.5s0.9-0.6,1.6-0.6
		s1.2,0.2,1.6,0.6c0.4,0.4,0.6,0.9,0.6,1.5s-0.2,1.1-0.6,1.5C113.3,15.6,112.8,15.8,112.2,15.8z M110.5,34.3V18.8h3.3v15.6
		L110.5,34.3L110.5,34.3z"/>
	<path class="st7" d="M121.2,34.3V18.8h2.9l0.2,2.7c0.5-1,1.2-1.7,2.1-2.3c0.9-0.5,2-0.8,3.2-0.8c1.9,0,3.4,0.6,4.4,1.8
		s1.6,2.9,1.6,5.2v9h-3.3v-8.6c0-3-1.2-4.5-3.7-4.5c-1.2,0-2.3,0.4-3.1,1.3c-0.8,0.9-1.2,2.1-1.2,3.8v8H121.2z"/>
	<path class="st8" d="M149.8,34.3V15.6h-6.4v-3.2h16.9v3.2h-6.4v18.7H149.8z"/>
	<path class="st8" d="M164.5,34.3V18.8h3.6l0.4,2.9c0.6-1,1.3-1.8,2.3-2.4c1-0.6,2.1-0.9,3.4-0.9v4.2h-1.1c-0.9,0-1.7,0.1-2.4,0.4
		c-0.7,0.3-1.2,0.7-1.6,1.4s-0.6,1.6-0.6,2.8v7.1L164.5,34.3L164.5,34.3z"/>
	<path class="st8" d="M185.2,34.7c-1.3,0-2.4-0.2-3.3-0.6s-1.5-1-1.9-1.7s-0.6-1.5-0.6-2.4c0-1.4,0.6-2.6,1.7-3.5
		c1.1-0.9,2.8-1.4,5.1-1.4h4v-0.4c0-1.1-0.3-1.9-0.9-2.4s-1.4-0.8-2.3-0.8c-0.8,0-1.5,0.2-2.1,0.6s-1,1-1.1,1.7h-3.9
		c0.1-1.1,0.5-2.1,1.1-3c0.7-0.8,1.5-1.5,2.6-1.9s2.2-0.7,3.5-0.7c2.2,0,4,0.5,5.2,1.7c1.3,1.1,1.9,2.7,1.9,4.7v9.6h-3.4l-0.4-2.5
		c-0.5,0.8-1.1,1.5-1.9,2.1C187.6,34.5,186.5,34.7,185.2,34.7z M186.1,31.6c1.1,0,2.1-0.4,2.7-1.1c0.6-0.8,1-1.7,1.2-2.8h-3.4
		c-1.1,0-1.8,0.2-2.3,0.6c-0.5,0.4-0.7,0.9-0.7,1.4c0,0.6,0.2,1.1,0.7,1.4C184.8,31.4,185.4,31.6,186.1,31.6z"/>
	<path class="st8" d="M208.6,34.7c-1.6,0-3-0.3-4.2-1c-1.2-0.7-2.2-1.7-2.9-2.9c-0.7-1.2-1.1-2.6-1.1-4.2s0.4-3,1.1-4.2
		c0.7-1.2,1.7-2.2,2.9-2.9c1.2-0.7,2.6-1,4.2-1c2,0,3.7,0.5,5,1.5c1.4,1,2.2,2.5,2.6,4.3h-4.2c-0.2-0.8-0.6-1.3-1.2-1.8
		c-0.6-0.4-1.4-0.6-2.2-0.6c-1.1,0-2.1,0.4-2.8,1.3c-0.8,0.8-1.2,2-1.2,3.5s0.4,2.6,1.2,3.5c0.8,0.8,1.7,1.3,2.8,1.3
		c0.8,0,1.6-0.2,2.2-0.6s1-1,1.2-1.8h4.2c-0.4,1.8-1.2,3.2-2.6,4.2C212.2,34.2,210.5,34.7,208.6,34.7z"/>
	<path class="st8" d="M222.7,34.3V11.7h4v13.3l5.5-6.3h4.8l-6.4,7.1l7.4,8.5h-5l-6.3-7.8v7.8H222.7z"/>
	<path class="st8" d="M249.7,34.7c-1.6,0-3-0.3-4.2-1c-1.2-0.7-2.2-1.6-2.9-2.8c-0.7-1.2-1-2.6-1-4.2c0-1.6,0.3-3,1-4.3
		c0.7-1.3,1.6-2.2,2.8-2.9c1.2-0.7,2.6-1,4.2-1c1.5,0,2.9,0.3,4.1,1s2.1,1.6,2.8,2.8s1,2.5,1,3.9c0,0.2,0,0.5,0,0.7
		c0,0.2,0,0.5,0,0.8h-11.8c0.1,1.2,0.5,2.2,1.3,2.9s1.7,1,2.8,1c0.8,0,1.5-0.2,2.1-0.5c0.6-0.4,1-0.8,1.2-1.4h4.1
		c-0.3,1-0.8,1.9-1.5,2.7c-0.7,0.8-1.5,1.4-2.5,1.9C252.1,34.5,251,34.7,249.7,34.7z M249.8,21.7c-1,0-1.9,0.3-2.6,0.8
		c-0.8,0.5-1.2,1.4-1.4,2.5h7.8c-0.1-1-0.4-1.8-1.1-2.5C251.6,22,250.8,21.7,249.8,21.7z"/>
	<path class="st8" d="M263.9,34.3V18.8h3.6l0.4,2.9c0.6-1,1.3-1.8,2.3-2.4c1-0.6,2.1-0.9,3.4-0.9v4.2h-1.1c-0.9,0-1.7,0.1-2.4,0.4
		c-0.7,0.3-1.2,0.7-1.6,1.4c-0.4,0.7-0.6,1.6-0.6,2.8v7.1L263.9,34.3L263.9,34.3z"/>
</g>
<path class="st8" d="M-141-47"/>
</svg>
