<?xml version="1.0" encoding="utf-8"?>
<!-- Generator: Adobe Illustrator 25.4.1, SVG Export Plug-In . SVG Version: 6.00 Build 0)  -->
<svg version="1.1" id="Layer_1" xmlns="http://www.w3.org/2000/svg" xmlns:xlink="http://www.w3.org/1999/xlink" x="0px" y="0px"
	 viewBox="0 0 500 500" style="enable-background:new 0 0 500 500;" xml:space="preserve">
<style type="text/css">
	.st0{display:none;fill:#F1F2F2;}
	.st1{fill:#2D2D2D;}
</style>
<path class="st0" d="M247.9,376.9c71.5,0.6,129.6-57.5,129-129c-0.6-68.3-58.4-126.2-126.7-126.7c-71.5-0.6-129.6,57.5-129,129
	C121.7,318.5,179.6,376.3,247.9,376.9z M254.9,149.6c38,0,70.9,21.3,87.7,52.5c-14.2-10.2-31.6-16.2-50.4-16.2
	c-47.8,0-86.6,38.8-86.6,86.5c0,32.7,18.2,61.2,45,75.9c-52.9-2.2-95.2-45.9-95.2-99.4C155.4,194.1,199.9,149.6,254.9,149.6z"/>
<image style="display:none;overflow:visible;enable-background:new    ;" width="512" height="512" xlink:href="8DC23C23.png"  transform="matrix(0.4135 0 0 0.4135 144.1489 143.661)">
</image>
<path class="st1" d="M251.1,121.7c-71.5-0.6-129.6,57.5-129,129c0.6,68.3,58.4,126.2,126.7,126.7c71.5,0.6,129.6-57.5,129-129
	C377.3,180.1,319.5,122.2,251.1,121.7z M292.2,194.3c1.6-2.3,9.8-10,11.6-11.7c1.6-1.5,3.8-2.4,6.1-2.4c5,0,9,4.1,9,9.1
	c0,1.9-0.6,3.7-1.6,5.2c-1.6,2.4-10.3,10.8-12.5,12.5c-1.5,1.2-3.4,1.9-5.5,1.9c-5,0-9-4.1-9-9.1
	C290.4,197.7,291.1,195.8,292.2,194.3z M241,163.4c0.2-1.9,1.1-3.7,2.6-5.2c3.5-3.5,9.3-3.5,12.9,0.1c1.4,1.4,2.3,3.2,2.6,5.1
	c0.4,2.8,0.1,14,0,16.5c-0.1,2.2-1,4.4-2.6,6c-3.5,3.5-9.3,3.5-12.9-0.1c-1.4-1.4-2.2-3-2.5-4.8C240.5,178.1,240.7,166.1,241,163.4z
	 M189.9,180.1c2,0,3.9,0.7,5.4,1.8c2.3,1.7,10.1,10,11.7,11.8c1.5,1.6,2.4,3.8,2.4,6.2c0,5.1-4.1,9.2-9.2,9.2
	c-1.9,0-3.7-0.6-5.2-1.6c-2.4-1.7-10.9-10.4-12.5-12.6c-1.2-1.5-1.9-3.5-1.9-5.5C180.7,184.2,184.8,180.1,189.9,180.1z M164,258.5
	c-1.9-0.2-3.7-1.1-5.2-2.6c-3.5-3.5-3.5-9.3,0.1-12.9c1.4-1.4,3.2-2.3,5.1-2.6c2.8-0.4,14-0.1,16.5,0c2.2,0.1,4.4,1,6,2.6
	c3.5,3.5,3.5,9.3-0.1,12.9c-1.4,1.4-3,2.2-4.8,2.5C178.8,259,166.7,258.9,164,258.5z M207.8,304.3c-1.6,2.4-10.3,10.8-12.5,12.5
	c-1.5,1.2-3.4,1.9-5.5,1.9c-5,0-9.1-4.1-9.1-9.1c0-2,0.6-3.9,1.8-5.4c1.6-2.3,9.8-10,11.6-11.7c1.6-1.5,3.8-2.4,6.1-2.4
	c5,0,9.1,4.1,9.1,9.1C209.4,301.1,208.8,302.9,207.8,304.3z M259.1,334.8c-0.1,2.2-1,4.4-2.6,6c-3.5,3.5-9.3,3.5-12.9-0.1
	c-1.4-1.4-2.2-3-2.5-4.8c-0.5-2.9-0.4-14.9,0-17.6c0.2-1.9,1.1-3.7,2.6-5.2c3.5-3.5,9.3-3.5,12.9,0.1c1.4,1.4,2.3,3.2,2.6,5.1
	C259.5,321,259.2,332.3,259.1,334.8z M250,295.9c-25.9,0-46.9-21-46.9-46.9s21-46.9,46.9-46.9s46.9,21,46.9,46.9
	S275.9,295.9,250,295.9z M309.9,318.5c-1.9,0-3.7-0.6-5.2-1.6c-2.4-1.6-10.8-10.3-12.5-12.5c-1.2-1.5-1.9-3.4-1.9-5.5
	c0-5,4.1-9,9.1-9c2,0,3.9,0.6,5.4,1.8c2.3,1.6,10,9.8,11.7,11.6c1.5,1.6,2.4,3.8,2.4,6.1C319,314.5,315,318.5,309.9,318.5z
	 M336.6,258.5c-2.9,0.5-14.9,0.4-17.6,0c-1.9-0.2-3.7-1.1-5.2-2.6c-3.5-3.5-3.5-9.3,0.1-12.9c1.4-1.4,3.2-2.3,5.1-2.6
	c2.8-0.4,14-0.1,16.5,0c2.2,0.1,4.4,1,6,2.6c3.5,3.5,3.5,9.3-0.1,12.9C340,257.3,338.4,258.1,336.6,258.5z"/>
</svg>
